<svg xmlns="http://www.w3.org/2000/svg" xmlns:xlink="http://www.w3.org/1999/xlink" width="200" height="200" class="icon" p-id="3464" t="1504788477590" version="1.1" viewBox="0 0 1024 1024"><defs><style type="text/css"/></defs><path d="M970.2510973052738 958.4967697589765l-117.83175115375667 8.526512829121202e-14-8.526512829121202e-14-117.83175115375667 117.83175115375667-8.526512829121202e-14 8.526512829121202e-14 117.83175115375667m-1.5631940186722204e-13-235.66350092667255l-117.83175115375667 8.526512829121202e-14-7.815970093361102e-14-117.83174977291586 117.83175115375667-8.526512829121202e-14 7.815970093361102e-14 117.83174977291586m-235.66350092667238 235.66350092667278l-117.83174977291586 7.815970093361102e-14-8.526512829121202e-14-117.83175115375667 117.83174977291586-7.815970093361102e-14 8.526512829121202e-14 117.83175115375667m-1.5631940186722204e-13-235.66350092667255l-117.83174977291586 7.815970093361102e-14-7.815970093361102e-14-117.83174977291586 117.83174977291586-7.815970093361102e-14 7.815970093361102e-14 117.83174977291586m-235.66350092667238 235.66350092667278l-117.83174977291586 7.815970093361102e-14-8.526512829121202e-14-117.83175115375667 117.83174977291586-7.815970093361102e-14 8.526512829121202e-14 117.83175115375667m471.32700185334477-471.32700185334556l-117.83175115375667 8.526512829121202e-14-7.815970093361102e-14-117.83174977291586 117.83175115375667-8.526512829121202e-14 7.815970093361102e-14 117.83174977291586z" p-id="3465"/></svg>